<?xml version="1.0" encoding="UTF-8"?>
<svg id="Layer_2" data-name="Layer 2" xmlns="http://www.w3.org/2000/svg" viewBox="0 0 75.86 49.54">
  <g id="OBJECTS">
    <g>
      <path d="M74.75,.17l-8.97,7.83c-.22,.2-.55,.22-.8,.05L54.38,1.01c-.61-.41-1.33,.33-.91,.93l9.39,13.31c.22,.31,.65,.37,.95,.14l2.6-2.04c.5-.39,1.14-.56,1.77-.46l4.27,.66c.58,.09,.98-.56,.64-1.04l-1.78-2.52c-.14-.21-.16-.47-.04-.7L75.77,.98c.35-.65-.46-1.3-1.02-.81Z" style="fill: #274251;"/>
      <path d="M17.26,37.4l-9.37-4.06c-.18-.08-.38-.07-.55,.03L.32,37.28c-.59,.33-.3,1.24,.37,1.16l7.09-.78c.14-.02,.29,.02,.41,.1l9.74,6.47c.29,.19,.68,.11,.87-.19l5.27-8.34c.13-.2,.37-.32,.61-.28l3.5,.45c.65,.08,.97-.76,.43-1.13l-4.84-3.36c-.26-.18-.62-.14-.83,.1l-4.97,5.76c-.18,.21-.47,.27-.72,.16Z" style="fill: #274251;"/>
      <path d="M59.76,45.03l-6.1-2.64c-.12-.05-.25-.04-.36,.02l-4.57,2.54c-.39,.22-.2,.81,.24,.76l4.61-.51c.09-.01,.19,.01,.27,.07l6.34,4.21c.19,.13,.45,.07,.57-.12l3.43-5.43c.08-.13,.24-.21,.39-.19l2.28,.29c.42,.05,.63-.49,.28-.73l-3.15-2.19c-.17-.12-.4-.09-.54,.07l-3.24,3.75c-.12,.13-.31,.18-.47,.11Z" style="fill: #274251;"/>
    </g>
  </g>
</svg>