<?xml version="1.0" encoding="UTF-8"?>
<svg id="Layer_2" data-name="Layer 2" xmlns="http://www.w3.org/2000/svg" xmlns:xlink="http://www.w3.org/1999/xlink" viewBox="0 0 380.43 115.03">
  <defs>
    <linearGradient id="linear-gradient" x1="190.22" y1="35.36" x2="190.22" y2="66.91" gradientUnits="userSpaceOnUse">
      <stop offset="0" stop-color="#41a7af"/>
      <stop offset="1" stop-color="#66c6bf"/>
    </linearGradient>
  </defs>
  <g id="OBJECTS">
    <path d="M380.43,48.2c-10.45-3.33-20.81-6.46-31.66-9.07-17.14-3.73-32.85-13.41-48.57-9.69-28.57,7.45-54.28,23.1-85.71,24.59-24.28,1.49-42.85-12.67-64.28-20.12-2.86-.75-5.71,0-8.57,0-15.71,2.98-22.85,14.9-38.57,9.69C70.23,32.43,58.8,13.06,24.52,1.88,15.28-1.01,7.11-.29,0,2.16V114.56c28.58,.6,57.26,.95,85.94-.92,40-2.98,64.17-3.66,99.88-13.34,18.57-5.22,40.1-15.71,61.53-19.44,31.43-4.47,58.57-13.41,89.99-16.39,14.18-1.17,28.74-1.31,43.09-.44" style="fill: url(#linear-gradient);"/>
  </g>
</svg>