<?xml version="1.0" encoding="UTF-8"?>
<svg xmlns="http://www.w3.org/2000/svg" viewBox="0 0 346.75 104.66">
  <g style="isolation: isolate;">
    <g id="Layer_2" data-name="Layer 2">
      <g id="OBJECTS">
        <g>
          <path d="M1.1,102.39c-1.46,0-1.46,2.27,0,2.27s1.46-2.27,0-2.27Z" style="fill: #fff;"/>
          <g style="mix-blend-mode: overlay;">
            <path d="M300.07,23.99c-.97,0-.98,1.51,0,1.51s.98-1.51,0-1.51Z" style="fill: #fff;"/>
            <path d="M219.77,49.74c-.97,0-.98,1.52,0,1.52s.98-1.52,0-1.52Z" style="fill: #fff;"/>
            <path d="M345.29,73.98c-.97,0-.98,1.52,0,1.52s.98-1.52,0-1.52Z" style="fill: #fff;"/>
            <path d="M189.97,86.23c-.97,0-.98,1.52,0,1.52s.98-1.52,0-1.52Z" style="fill: #fff;"/>
            <path d="M18.27,0c-.97,0-.98,1.52,0,1.52s.98-1.52,0-1.52Z" style="fill: #fff;"/>
            <path d="M163.71,20.45c-.97,0-.98,1.52,0,1.52s.98-1.52,0-1.52Z" style="fill: #fff;"/>
            <path d="M62.71,36.61c-.97,0-.98,1.51,0,1.51s.98-1.51,0-1.51Z" style="fill: #fff;"/>
            <path d="M12.71,72.47c-.97,0-.98,1.52,0,1.52s.98-1.52,0-1.52Z" style="fill: #fff;"/>
            <path d="M346.02,41.66c-.97,0-.98,1.52,0,1.52s.98-1.52,0-1.52Z" style="fill: #fff;"/>
            <path d="M5.64,17.93c-.97,0-.98,1.52,0,1.52s.98-1.52,0-1.52Z" style="fill: #fff;"/>
            <path d="M34.43,18.05c-1.46,0-1.46,2.27,0,2.27s1.46-2.27,0-2.27Z" style="fill: #fff;"/>
            <path d="M131.16,57.42c-1.46,0-1.46,2.27,0,2.27s1.46-2.27,0-2.27Z" style="fill: #fff;"/>
            <path d="M64.32,81.09c-1.46,0-1.46,2.27,0,2.27s1.46-2.27,0-2.27Z" style="fill: #fff;"/>
            <path d="M215.73,16.54c-1.46,0-1.46,2.27,0,2.27s1.46-2.27,0-2.27Z" style="fill: #fff;"/>
            <path d="M269.8,29.04c-1.46,0-1.46,2.27,0,2.27s1.46-2.27,0-2.27Z" style="fill: #fff;"/>
            <path d="M334.41,11.49c-1.46,0-1.46,2.27,0,2.27s1.46-2.27,0-2.27Z" style="fill: #fff;"/>
            <path d="M314.29,56.44c-1.46,0-1.46,2.27,0,2.27s1.46-2.27,0-2.27Z" style="fill: #fff;"/>
            <path d="M7.16,46.84c-1.46,0-1.46,2.27,0,2.27s1.46-2.27,0-2.27Z" style="fill: #fff;"/>
            <path d="M257.14,8.96c-1.46,0-1.46,2.27,0,2.27s1.46-2.27,0-2.27Z" style="fill: #fff;"/>
            <path d="M54.12,5.93c-1.46,0-1.46,2.27,0,2.27s1.46-2.27,0-2.27Z" style="fill: #fff;"/>
            <path d="M204.62,79.67c-1.46,0-1.46,2.27,0,2.27s1.46-2.27,0-2.27Z" style="fill: #fff;"/>
            <path d="M136.68,1.52c-1.46,0-1.46,2.27,0,2.27s1.46-2.27,0-2.27Z" style="fill: #fff;"/>
            <path d="M306.63,84.72c-1.46,0-1.46,2.27,0,2.27s1.46-2.27,0-2.27Z" style="fill: #fff;"/>
            <path d="M182.4,41.79c-1.46,0-1.46,2.27,0,2.27s1.46-2.27,0-2.27Z" style="fill: #fff;"/>
            <path d="M92.18,47.2c-1.46,0-1.46,2.27,0,2.27s1.46-2.27,0-2.27Z" style="fill: #fff;"/>
            <path d="M34.93,44.32c-1.46,0-1.46,2.27,0,2.27s1.46-2.27,0-2.27Z" style="fill: #fff;"/>
          </g>
        </g>
      </g>
    </g>
  </g>
</svg>