<?xml version="1.0" encoding="UTF-8"?>
<svg id="Layer_2" data-name="Layer 2" xmlns="http://www.w3.org/2000/svg" viewBox="0 0 97.12 234.79">
  <g id="OBJECTS">
    <path d="M5.44,85.15c.79-.19,1.68-.1,2.5,0,2.28,.29,3.95-.98,5.74-2.04,.89-.53,1.9-.87,2.76-1.44,.93-.61,1.96-1.24,2.58-2.12,.92-1.28,1.6-2.69,3.28-3.19,.22-.06,.3-.64,.42-.99,.09-.27,.05-.63,.22-.8,.86-.88,1.31-.75,1.72,.51,.2,.62,.51,1.2,.83,1.78,0,1.44-.13,2.68-.59,3.93,1.1,8.86,.74,15.84-3.16,24.73-.72,1.64-1.35,4.52-.4,6.03,1.03,1.64-1.2,3.55-1.62,5.71-.29,1.47,.76,2.85,2.25,2.99,.72,.07,1.31,.13,1.38,.16,1.98,.82,1.56,2.1,1.53,2.51-.21,2.35-.78,4.68-.84,7.03-.07,2.72,.15,5.46,.43,8.17,.14,1.38,.34,2.76,.54,4.13,.05,3.62,.41,7.2,1.08,10.73-.3,1.19-.02,2.47,.23,3.77,.3,1.62,.42,3.27,.6,4.91,.25,2.3,.74,4.62,.62,6.91-.09,1.67,.25,3.37,1.27,4.69,2.53,3.26,1.01,6.77,.7,10.32-.32,3.56-.47,7.27,.2,10.75,.93,4.84,2.81,9.5,4.05,14.29,.73,2.83,1.02,5.78,1.47,8.68,.03,.2-.23,.65-.36,.65-1.14,.03-1.02,.61-.73,1.4,.15,.42,.06,.92,.14,1.37,.35,1.86,.74,3.72,1.08,5.59,.08,.44,.07,1.17,0,1.61-.19,1.14-.3,2.3-.65,3.39-.38,1.18-.78,2.4-1.36,3.49h14.49c-.05-1.25-.16-2.5-.26-3.75-.18-2.28-.62-4.53-.92-6.8-.07-.54-.05-1.42,.1-1.94,.54-1.87,.12-3.78-1.05-4.97-2.84-2.9-1.08-6.17-1.27-9.27-.05-.91,.25-1.83,.32-2.75,.5-6.14,1.01-12.27-.02-18.42-.7-4.15,0-8.17,1.51-12.06,.04-.09,.09-.18,.11-.27,.3-1.38,.53-2.68,1.61-3.86,.86-.95,1.17-2.45,1.58-3.75,.76-2.4,1.43-4.83,2.1-7.13,.3,1.99,.8,4.12,.88,6.26,.05,1.36-.58,2.73-.8,4.12-.06,.37,.18,1.03,.47,1.16,1.29,.6,1.83,1.43,2.19,2.92,.78,3.22,2.27,6.27,3.12,9.48,.56,2.13,.76,4.42,.7,6.63-.08,3.46-.89,6.94-.68,10.37,.23,3.86,1.24,7.68,1.91,11.52,.23,1.33,.51,2.66,.69,4,.04,.27-.22,.67-.47,.87-1.1,.91-.97,2.34,.24,3.14,.21,.14,.34,.84,.2,.99-1.88,2.08-2.35,5.06-1.18,7.63,.16,.36,.14,.84,.11,1.25-.11,1.37-.14,2.77-.44,4.11-.04,.17-.09,.35-.13,.52h18.78c-.32-1.75-1-3.36-2.03-4.44-.43-.45-.92-.95-1.48-1.13-1.46-.47-1.5-1.39-1.35-2.71,.14-1.22-.02-2.51-.29-3.72-.16-.75-1.03-1.39-1.1-2.12-.12-1.37,0-2.78,.23-4.14,.66-3.91,1.44-7.79,2.14-11.69,.5-2.79,1-5.59,1.44-8.39,.54-3.45-.04-6.83-1.14-10.06-1.35-3.96-.93-7.99-.89-12.01,0-.29,.69-.55,1.01-.87,.32-.33,.8-.72,.83-1.11,.23-2.92,.2-5.87,.56-8.76,.71-5.61,1.81-11.17,2.38-16.78,.38-3.78,.12-7.63,.19-11.45,0-.43,.37-.87,.34-1.29-.08-1.13-.28-2.25-.44-3.37-.04-.29-.14-.59-.14-.88-.01-3.16-.03-6.33,.02-9.49,0-.17,.54-.51,.76-.46,.8,.16,1.22,.08,1.34-.88,.15-1.2,.43-2.4,.78-3.57,.08-.27,.71-.61,1.03-.55,1.94,.35,2.45-.21,2.72-2.44,.08-.64,.27-1.29,.54-1.87,.64-1.37,.25-2.25-1.19-2.73-.36-.12-.83-.55-.87-.88-.3-2.51-.49-5.03-.73-7.54-.12-1.21-.28-2.42-.42-3.63-.04-.36-.21-.78-.08-1.06,.56-1.16-.2-1.96-.56-2.94-.25-.7,.13-1.67,.35-2.49,.3-1.13,.84-1.74,1.81-.46,.02,.03,.04,.05,.07,.07,2.24,.98,4.45,2.03,6.73,2.87,.53,.2,1.51-.15,1.98-.58,1.05-.96,1.95-2.09,2.82-3.22,.26-.34,.36-.94,.27-1.36-.35-1.69,.16-3.03,1.19-4.43,1.66-2.27,1.24-3.98-.7-6.15-.03-.09-.06-.17-.09-.26,.09-1.21,.03-2.43-.22-3.52-.31-1.35-.99-2.56-1.96-3.54-.28-.28-.86-.65-1.43-1.06-.59-.96-1.17-1.91-1.75-2.87-.11-.19-.24-.42-.22-.62,.37-3.48-.64-6.75-1.82-9.89-.83-2.19-2.35-4.12-3.55-6.17-.11-.19-.19-.41-.28-.62,.22-.04,.44-.08,.66-.1,.13-.01,.26,0,.4,0,3.66,.05,3.08,.55,3.59-3.12,.43-3.02-.11-6.18-.3-9.27-.02-.3-.67-.81-1.02-.8-4.04,.05-8.09,.17-12.13,.31-.24,0-.46,0-.66,0-.21-.6-.46-1.18-.77-1.75-.37-.67-1.01-1.27-1.3-1.97-.19-.45-.25-.93-.32-1.41,.05-.37-.02-.73-.21-1.05-.05-.17-.11-.35-.2-.51-1.31-2.62-4.12-3.09-6.85-3.55,.23-1.26,.5-2.62,.61-4,.04-.48-.63-1.02-.98-1.53-.11-.16-.32-.32-.32-.47,.05-2.34,.26-4.69,.14-7.02-.06-1.23-.68-2.43-1.08-3.63-.14-.44-.55-.85-.53-1.26,.06-1.57-1.26-2.19-2.02-3.21-1.11-1.49-2.69-1.61-4.26-1.79-.8-.56-1.66-1.01-2.62-1.22-1.68-.38-3.14,.28-4.76,.58-2.78,.51-4.81,3.15-4.42,5.9-.31,.52-.67,1-1.13,1.45-1.9,1.88-1.78,4.37-2.12,6.75-.21,1.47,.02,2.99-1.1,4.38-.44,.55,.29,2.03,.45,3.09,.12,.82,.19,1.65,.28,2.48-1.02,.04-2.03,.08-3.05,.1-.15,0-.33-.15-.45-.11-2.06,.85-4.15,1.64-6.14,2.63-.48,.24-.86,1.17-.85,1.78,.04,1.61,.28,3.21,.52,4.81,.13,.87-.2,1.11-1.01,1.1-4.34-.07-8.68-.07-13.02-.19-1.25-.04-1.59,.38-1.56,1.58,.07,2.98,.04,5.97,.02,8.96,0,1.28,.32,1.9,1.84,1.75,1.16-.11,2.32-.17,3.49-.2,1.04,.17,2.09,.34,3.13,.52-.09,.02-.19,.04-.28,.06-.56,.12-1.21,.4-1.56,.83-.52,.64-.71,1.55-1.21,2.21-.5,.66-1.2,1.17-1.83,1.72-.65,.57-1.27,1.21-1.92,1.77-2.62,1.62-4.86,3.69-6.57,6.27-.95,1.43-1.58,2.95-2.11,4.52-.24,.24-.49,.48-.77,.68-1.61,1.12-3.28,2.14-4.87,3.29-2.1,1.52-2.67,3.81-1.94,6.37,.21,.73-.19,1.64-.36,2.46-.19,.91-.65,1.81-.62,2.7,.03,1,.41,2.01,.75,2.97,.69,1.94,2.15,2.44,4.69,1.84Z" style="fill: #274251;"/>
  </g>
</svg>